# xmcd
#
# Track frame offsets: 
#        150
#        15930
#        38682
#        56705
#        69317
#        88050
#        102642
#        122517
#        140467
#        161917
#        181887
#        198932
#        212850
#        231280
#        244317
#        261392
#        279750
#        301267
#        315292
#        334255
#
# Disc length: 4615 seconds
#
# Revision: 1
# Processed by: cddbd v1.5.2PL0 Copyright (c) Steve Scherf et al.
# Submitted via: ExactAudioCopyFreeDBPlugin 1.0
#
DISCID=1a120514
DTITLE=Вячеслав Малежик - 200 лет
DYEAR=1996
DGENRE=Pop
TTITLE0=200 лет
TTITLE1=Любовь из-за угла
TTITLE2=Пей-гуляй
TTITLE3=Лилипутик
TTITLE4=Грустная история
TTITLE5=Улочки-проулочки
TTITLE6=Лето навсегда
TTITLE7=Дебри Занзтбара\\
TTITLE8=Медленный рассвет
TTITLE9=Моя вина
TTITLE10=Девушка по имени Китай
TTITLE11=Жду приказа
TTITLE12=Пять летних дней (Гагра)
TTITLE13=Я и лицо твое не помню...
TTITLE14=Верните мне лето
TTITLE15=Музыкальный автомат
TTITLE16=Больше чем любовь
TTITLE17=Липонька
TTITLE18=Отцу
TTITLE19=Один на льдине
EXTD=
EXTT0=
EXTT1=
EXTT2=
EXTT3=
EXTT4=
EXTT5=
EXTT6=
EXTT7=
EXTT8=
EXTT9=
EXTT10=
EXTT11=
EXTT12=
EXTT13=
EXTT14=
EXTT15=
EXTT16=
EXTT17=
EXTT18=
EXTT19=
PLAYORDER=
